<svg xmlns="http://www.w3.org/2000/svg" xml:space="preserve" viewBox="0 0 256 256"><path d="M113.7 138C76.9 138 47 108.1 47 71.3c0-36.8 29.9-66.7 66.7-66.7 36.8 0 66.7 29.9 66.7 66.7 0 36.8-29.9 66.7-66.7 66.7zm0-118.6c-28.6 0-51.8 23.2-51.8 51.8 0 28.6 23.2 51.8 51.8 51.8 28.6 0 51.8-23.2 51.8-51.8 0-28.5-23.2-51.8-51.8-51.8z"/><path d="M48.1 250.4c-5.1 0-19.6-.8-28.6-9.2-10.2-9.5-9.7-25.1-9.4-29.7 3.8-45.7 50.8-84.3 102.5-84.3 21.2 0 41.7 6.3 59.1 18.3 2.3 1.6 4.6 3.3 6.9 5.1 3.2 2.6 3.7 7.3 1.1 10.5s-7.3 3.7-10.5 1.1c-1.9-1.5-3.9-3-5.9-4.4-15-10.3-32.5-15.7-50.7-15.7-44.3 0-84.5 32.4-87.7 70.7-.5 6.1.7 14 4.7 17.6 5.1 4.7 16.3 5.3 19.8 5.1h123.3c4.1 0 7.4 3.3 7.4 7.4s-3.3 7.5-7.5 7.5H48.1zM204.6 243.8c0 3.2-2.6 5.8-5.8 5.8-3.2 0-5.8-2.6-5.8-5.8v-79c0-3.2 2.6-5.8 5.8-5.8 3.2 0 5.8 2.6 5.8 5.8v79z"/><path d="M198.8 251.4c-4.2 0-7.7-3.5-7.7-7.7v-79c0-4.2 3.5-7.7 7.7-7.7s7.7 3.5 7.7 7.7v79c0 4.3-3.4 7.7-7.7 7.7zm0-90.6c-2.2 0-4 1.8-4 4v79c0 2.2 1.8 4 4 4s4-1.8 4-4v-79c0-2.2-1.8-4-4-4z"/><path d="M238.3 198.4c3.2 0 5.8 2.6 5.8 5.8 0 3.2-2.6 5.8-5.8 5.8h-79c-3.2 0-5.8-2.6-5.8-5.8 0-3.2 2.6-5.8 5.8-5.8h79z"/><path d="M238.3 211.9h-79c-4.2 0-7.7-3.4-7.7-7.7 0-4.2 3.5-7.7 7.7-7.7h79c4.2 0 7.7 3.5 7.7 7.7 0 4.3-3.4 7.7-7.7 7.7zm-79-11.6c-2.2 0-4 1.8-4 4s1.8 4 4 4h79c2.2 0 4-1.8 4-4s-1.8-4-4-4h-79z"/></svg>