<svg xmlns="http://www.w3.org/2000/svg" xml:space="preserve" viewBox="0 0 256 256"><path fill="#00aa00" d="M117.7 10c-12.8 1.5-20.2 3.2-30.6 7-34.7 12.6-62 41.7-72.5 77.3-3.6 12-4.6 19.5-4.6 33.6 0 12.8.5 17.5 3 27.7 8.7 35.7 34.4 66.3 67.8 80.7 26.7 11.4 56 12.9 83.3 4.1 36.1-11.6 64.6-40.2 76.2-76.2 3.5-11.1 5.1-20 5.5-32.1 2.1-59.6-40-110.8-99.3-120.9-4.3-.7-8.6-1-16.5-1.2-5.8-.1-11.4-.1-12.3 0zm24.8 13.2c38.9 5.2 72.4 32.7 85.2 69.9 4.2 12.3 5.7 21.6 5.7 34.8 0 17.2-3.2 31.1-10.7 46.4-15.6 31.8-45.1 53.1-80.5 58.3-7.1 1.1-21.5 1.1-28.7 0-35.1-5.2-64.4-26.2-80.1-57.4-5.3-10.5-8.7-21.2-10.4-33.1-1-7.1-1-21.5 0-28.7 3.5-23.5 13.6-43.8 30.1-60.3C77 29.5 109 18.7 142.5 23.2z"/><path fill="#00aa00" d="m144.3 120.5-33.9 33.9-16.1-16.1C77 121 76.8 120.9 73.2 122.1c-2.7.9-4.1 3-4.1 6v2.5l19.1 19.1c20.4 20.5 20.2 20.3 24 19.4.9-.2 12.5-11.5 37.2-36.2 19.7-19.7 36.2-36.4 36.6-37.1.8-1.6.9-4.6 0-6.1-1-1.8-3.2-3-5.6-3h-2.2l-33.9 33.8z"/></svg>