<svg xmlns="http://www.w3.org/2000/svg" xml:space="preserve" viewBox="0 0 256 256"><path d="M116.8 10.5C93.9 12.7 70.9 22.4 53 37.4c-22.1 18.5-36.5 43.3-41.6 71.9-1.5 8.1-1.8 24-.6 33.1 6.7 53 48.8 95.5 101.5 102.8 8.3 1.1 23.2 1.1 31.3-.1 59.9-8.3 104.8-61.9 102.3-121.7-1-21.5-7.5-41.6-19.5-59.8-24.2-36.5-66.8-57.2-109.6-53.1zm18.5 10.7c51 3.7 91.1 40.5 98.6 90.4 4.4 29.2-3.2 59.2-20.6 82-3.6 4.8-11 12.8-11.8 12.8-.2 0-.7-2.6-1.1-5.8-1.7-14-6.3-30.8-11.7-41.9-5.6-11.8-14.6-22.9-23.3-29-2.2-1.5-4-2.8-4.1-2.9-.1-.1.9-1.7 2.1-3.6 9-13.5 10.1-29.2 2.9-42.9-13.7-26.3-46.6-32.1-67.7-12.2-9.1 8.7-13.6 19-13.6 31 0 9.2 2.7 17.6 7.9 24.8 1.1 1.5 2 2.9 1.9 3-.1.1-1.9 1.4-3.9 2.8-17.7 13-30.1 37.7-34.4 68.1-.5 3.3-1 7-1.1 8l-.3 2-4.6-4.8c-14.8-15.6-24.1-34-28.3-56.1-1-5.3-1.2-8.7-1.2-18.4-.1-12.9.4-16.9 3.1-27.6 11-44.3 49.4-76.3 95.7-79.6 3.3-.3 6.3-.5 6.8-.5.4-.1 4.4.1 8.7.4zm1.1 46.8c8.4 2.2 15.9 7.9 19.7 15.3 6.8 12.9 4.6 28.9-5.2 38.7-6.3 6.3-13.5 9.2-22.9 9.2-15.3 0-27.5-9.2-31.3-23.6-1.2-4.6-1.1-12.6.1-17.4 2.8-10.8 11.5-19.5 22.4-22.3 4.2-1.1 12.9-1.1 17.2.1zm-28.9 68.7c13.5 7.4 27.9 7.4 40.8-.1 4.7-2.7 4.6-2.7 12 2.8 10.3 7.8 18.2 19.7 23.4 35.6 3.5 10.8 5.9 23.6 6.6 34.8l.3 5.8-4.7 3c-28.7 18.3-66.9 21.7-98.9 8.8-6.3-2.5-9.5-4.1-16-8l-5.3-3.2.3-6.2c.8-15.9 4.9-32.8 10.8-45.9 4.8-10.4 13.7-21.4 22.1-27 2.2-1.5 4-2.7 4.1-2.7.3.1 2.3 1.1 4.5 2.3z"/></svg>